<?xml version="1.0" encoding="UTF-8" standalone="no"?>
<svg
   xmlns:dc="http://purl.org/dc/elements/1.1/"
   xmlns:cc="http://creativecommons.org/ns#"
   xmlns:rdf="http://www.w3.org/1999/02/22-rdf-syntax-ns#"
   xmlns:svg="http://www.w3.org/2000/svg"
   xmlns="http://www.w3.org/2000/svg"
   id="svg3848"
   version="1.1"
   viewBox="0 0 50.800001 50.800001"
   height="2in"
   width="2in">
  <defs
     id="defs3842" />
  <metadata
     id="metadata3845">
    <rdf:RDF>
      <cc:Work
         rdf:about="">
        <dc:format>image/svg+xml</dc:format>
        <dc:type
           rdf:resource="http://purl.org/dc/dcmitype/StillImage" />
        <dc:title></dc:title>
      </cc:Work>
    </rdf:RDF>
  </metadata>
  <g
     transform="translate(0,-246.19998)"
     id="layer1">
    <path
       id="path3765"
       d="m 25.488338,249.61774 c -0.201358,0.0109 -0.315722,0.17448 -0.288424,0.14491 L 1.7743462,279.11273 c -0.180494,0.20862 -0.09757,0.5437 0.159121,0.64455 l 30.9333958,12.91058 a 0.15755393,0.15755393 0 0 0 0.0033,10e-4 l 0.200352,0.0788 c 0.169398,0.0665 0.364109,0.011 0.473326,-0.13385 l 0.15579,-0.20614 15.368624,-20.38946 c 0.124342,-0.16503 0.104373,-0.40031 -0.04631,-0.54175 a 0.15755393,0.15755393 0 0 0 -0.001,0 l -22.996508,-21.52113 -0.229302,-0.2228 a 0.15755393,0.15755393 0 0 0 -8.83e-4,-0.001 c -0.05898,-0.057 -0.133397,-0.0947 -0.214912,-0.10858 -0.03215,-0.006 -0.06263,-0.007 -0.0914,-0.006 z m 0.602097,1.92262 21.706809,20.31577 -14.330215,19.01158 c -2.458772,-13.10918 -4.917687,-26.21828 -7.376594,-39.32735 z m -1.125258,0.21228 c 2.47115,13.17423 4.942794,26.34845 7.413799,39.52279 L 3.2576652,279.08554 Z"
       style="color:#000000;font-style:normal;font-variant:normal;font-weight:normal;font-stretch:normal;font-size:medium;line-height:normal;font-family:sans-serif;font-variant-ligatures:normal;font-variant-position:normal;font-variant-caps:normal;font-variant-numeric:normal;font-variant-alternates:normal;font-feature-settings:normal;text-indent:0;text-align:start;text-decoration:none;text-decoration-line:none;text-decoration-style:solid;text-decoration-color:#000000;letter-spacing:normal;word-spacing:normal;text-transform:none;writing-mode:lr-tb;direction:ltr;text-orientation:mixed;dominant-baseline:auto;baseline-shift:baseline;text-anchor:start;white-space:normal;shape-padding:0;clip-rule:nonzero;display:inline;overflow:visible;visibility:visible;opacity:1;isolation:auto;mix-blend-mode:normal;color-interpolation:sRGB;color-interpolation-filters:linearRGB;solid-color:#000000;solid-opacity:1;vector-effect:none;fill:#000000;fill-opacity:1;fill-rule:nonzero;stroke:none;stroke-width:0.29938513;stroke-linecap:butt;stroke-linejoin:miter;stroke-miterlimit:4;stroke-dasharray:none;stroke-dashoffset:105.8267746;stroke-opacity:1;color-rendering:auto;image-rendering:auto;shape-rendering:auto;text-rendering:auto;enable-background:accumulate" />
  </g>
</svg>
