<?xml version="1.0" encoding="UTF-8" standalone="no"?>
<svg
   xmlns:dc="http://purl.org/dc/elements/1.1/"
   xmlns:cc="http://creativecommons.org/ns#"
   xmlns:rdf="http://www.w3.org/1999/02/22-rdf-syntax-ns#"
   xmlns:svg="http://www.w3.org/2000/svg"
   xmlns="http://www.w3.org/2000/svg"
   id="svg2334"
   version="1.1"
   viewBox="0 0 127 127"
   height="5in"
   width="5in">
  <defs
     id="defs2328" />
  <metadata
     id="metadata2331">
    <rdf:RDF>
      <cc:Work
         rdf:about="">
        <dc:format>image/svg+xml</dc:format>
        <dc:type
           rdf:resource="http://purl.org/dc/dcmitype/StillImage" />
        <dc:title></dc:title>
      </cc:Work>
    </rdf:RDF>
  </metadata>
  <g
     transform="translate(0,-169.99998)"
     id="layer1">
    <path
       style="color:#000000;font-style:normal;font-variant:normal;font-weight:normal;font-stretch:normal;font-size:medium;line-height:normal;font-family:sans-serif;font-variant-ligatures:normal;font-variant-position:normal;font-variant-caps:normal;font-variant-numeric:normal;font-variant-alternates:normal;font-feature-settings:normal;text-indent:0;text-align:start;text-decoration:none;text-decoration-line:none;text-decoration-style:solid;text-decoration-color:#000000;letter-spacing:normal;word-spacing:normal;text-transform:none;writing-mode:lr-tb;direction:ltr;text-orientation:mixed;dominant-baseline:auto;baseline-shift:baseline;text-anchor:start;white-space:normal;shape-padding:0;clip-rule:nonzero;display:inline;overflow:visible;visibility:visible;opacity:1;isolation:auto;mix-blend-mode:normal;color-interpolation:sRGB;color-interpolation-filters:linearRGB;solid-color:#000000;solid-opacity:1;vector-effect:none;fill:#000000;fill-opacity:0.99470903;fill-rule:nonzero;stroke:none;stroke-width:2.16033006;stroke-linecap:round;stroke-linejoin:bevel;stroke-miterlimit:4;stroke-dasharray:none;stroke-dashoffset:45.35433197;stroke-opacity:1;paint-order:stroke markers fill;color-rendering:auto;image-rendering:auto;shape-rendering:auto;text-rendering:auto;enable-background:accumulate"
       d="m 61.360234,174.74498 c 0,0 -0.230712,0.0165 -0.230712,0.0165 0,1.7e-4 -0.193096,0.0496 -0.193096,0.0496 0,0 0.03557,0.0943 0.06365,0.16458 l -0.115357,-0.11743 -47.377384,21.79043 c -0.105932,0.0247 -0.228405,0.0744 -0.382129,0.16455 -0.248661,0.14142 -0.447623,0.49452 -0.408097,0.4234 l -0.145957,0.53007 -0.566291,60.98542 0.06616,0.0165 c -0.04716,0.2117 -0.05206,0.50857 0.105931,0.80544 0.181265,0.34815 0.524121,0.53421 0.75277,0.59788 0.03557,0.0165 0.05206,0 0.08715,0.005 l 49.106262,33.6253 1.247216,-0.0165 c 7.802037,-5.68821 19.664503,-14.20985 29.501534,-21.31858 4.918461,-3.55428 9.330387,-6.75537 12.480067,-9.07527 1.57497,-1.16087 2.83328,-2.09795 3.68928,-2.75795 0.42802,-0.32994 0.75301,-0.58629 0.98399,-0.78146 0.11535,-0.0943 0.20011,-0.16455 0.30208,-0.27784 0.0521,-0.0496 0.10358,-0.0745 0.21666,-0.2944 0.0521,-0.0943 0.18365,-0.26626 0.12006,-0.65493 l -0.56513,-60.86081 -0.0965,-0.43828 c -0.20011,-0.43827 -0.47235,-0.53007 -0.61641,-0.59292 -0.0587,-0.0248 -0.0827,-0.0248 -0.12709,-0.0496 l -47.169097,-21.69465 -0.02316,-0.005 c -0.174235,-0.0943 -0.233112,-0.11742 -0.307287,-0.1414 -0.02316,-0.005 0.09179,-6.6e-4 -0.211957,-0.0745 -0.03971,-0.005 -0.193081,-0.0248 -0.193081,-0.0248 z m 0.554055,0.18854 0.0042,7e-4 c 0.0028,0.003 0.0028,0.003 0.0056,0.005 0,0.005 0.02316,0.0165 0.04716,0.0496 v 7e-4 c -0.01733,-0.0165 -0.03557,-0.0249 -0.04716,-0.0496 -0.0035,-0.002 -0.01158,-0.005 -0.01158,-0.0165 z m 0.207234,0.16457 c 0.0035,0.002 0.0056,0.005 0.0056,0.005 0,0 0.02814,0.0496 0.05214,0.0744 -0.02814,-0.0248 -0.03971,-0.0496 -0.05873,-0.0744 z m -0.782458,2.89826 46.359445,79.66846 -91.815242,-0.31342 z m -2.658228,0.24726 -44.479708,76.4385 0.522458,-56.22116 z m 5.302385,4.1e-4 43.957598,20.21692 0.52181,56.22117 -14.296548,-24.56846 z m 42.499788,81.59787 c -0.72358,0.54413 -1.37884,1.04072 -2.41444,1.80364 -3.13807,2.31222 -7.546934,5.51092 -12.463566,9.06372 -9.626599,6.95681 -21.076273,15.18496 -28.890295,20.87664 l -45.911818,-31.4386 z"
       id="path2521" />
  </g>
</svg>
